<?xml version="1.0"?>
<svg xmlns="http://www.w3.org/2000/svg" xmlns:xlink="http://www.w3.org/1999/xlink" version="1.1" viewBox="0 0 172 172" width="64px" height="64px"><g fill="none" fill-rule="nonzero" stroke="none" stroke-width="1" stroke-linecap="butt" stroke-linejoin="miter" stroke-miterlimit="10" stroke-dasharray="" stroke-dashoffset="0" font-family="none" font-weight="none" font-size="none" text-anchor="none" style="mix-blend-mode: normal"><path d="M0,172v-172h172v172z" fill="none"/><g id="Layer_1"><g><g fill="#000000"><circle cx="64" cy="64" transform="scale(1.34375,1.34375)" r="50"/></g><g fill="#ffffff"><path d="M86,157.21875c-39.2375,0 -71.21875,-31.98125 -71.21875,-71.21875c0,-39.2375 31.98125,-71.21875 71.21875,-71.21875c39.2375,0 71.21875,31.98125 71.21875,71.21875c0,39.2375 -31.98125,71.21875 -71.21875,71.21875zM86,22.84375c-34.80312,0 -63.15625,28.35313 -63.15625,63.15625c0,34.80313 28.35313,63.15625 63.15625,63.15625c34.80313,0 63.15625,-28.35312 63.15625,-63.15625c0,-34.80313 -28.35312,-63.15625 -63.15625,-63.15625z"/></g></g><g fill="#ffffff"><path d="M116.23438,69.875h-60.46875c-2.28438,0 -4.03125,-1.74688 -4.03125,-4.03125c0,-2.28438 1.74687,-4.03125 4.03125,-4.03125h60.46875c2.28437,0 4.03125,1.74687 4.03125,4.03125c0,2.28437 -1.74688,4.03125 -4.03125,4.03125z"/></g><g fill="#ffffff"><path d="M116.23438,90.03125h-60.46875c-2.28438,0 -4.03125,-1.74688 -4.03125,-4.03125c0,-2.28437 1.74687,-4.03125 4.03125,-4.03125h60.46875c2.28437,0 4.03125,1.74688 4.03125,4.03125c0,2.28437 -1.74688,4.03125 -4.03125,4.03125z"/></g><g fill="#ffffff"><path d="M116.23438,110.1875h-60.46875c-2.28438,0 -4.03125,-1.74688 -4.03125,-4.03125c0,-2.28437 1.74687,-4.03125 4.03125,-4.03125h60.46875c2.28437,0 4.03125,1.74688 4.03125,4.03125c0,2.28437 -1.74688,4.03125 -4.03125,4.03125z"/></g></g></g></svg>
